<?xml version="1.0" standalone="no"?>
<!DOCTYPE svg PUBLIC "-//W3C//DTD SVG 1.1//EN" 
  "http://www.w3.org/Graphics/SVG/1.1/DTD/svg11.dtd">
<svg viewBox="0 0 26 25" xmlns="http://www.w3.org/2000/svg" xmlns:xlink= "http://www.w3.org/1999/xlink"
><g stroke="none" stroke-width="1" fill="none" fill-rule="evenodd"><g transform="translate(-15, -15.8)" fill="#FFFFFF"><path d="M39.5 25l-7-.8c-.2 0-.5-.3-.6-.5l-3-6.4c-.6-1.2-1.5-1.2-2 0l-3 6.4c0 .2-.3.5-.6.5l-7 .8c-1.3 0-1.6 1-.6 2l5.2 4.6c.2.2.3.6.2.8l-1.4 7c-.2 1.2.5 1.8 1.7 1l6-3.4h1l6 3.5c1 .7 2 0 1.6-1.2l-1.3-7s0-.5.3-.7l5-4.7c1-1 1-2-.5-2z"></path></g></g></svg>