<?xml version="1.0" standalone="no"?>
<!DOCTYPE svg PUBLIC "-//W3C//DTD SVG 1.1//EN" 
  "http://www.w3.org/Graphics/SVG/1.1/DTD/svg11.dtd">
<svg class="Scale(1)" viewBox="0 0 60 60" xmlns="http://www.w3.org/2000/svg" xmlns:xlink= "http://www.w3.org/1999/xlink"
><path d="M151.6 43.7v-1.4l6.5 6.5c1.3 1.2 1.3 3 0 4.3-1 1.3-3 1.3-4.2 0l-6.5-6.4h1.4l-6.5 6.5c-1.2 1.3-3 1.3-4.3 0-1.3-1-1.3-3 0-4.2l6.4-6.5v1.4l-6.5-6.5c-1.3-1.2-1.3-3 0-4.3 1-1.3 3-1.3 4.2 0l6.5 6.4h-1.4l6.5-6.5c1.2-1.3 3-1.3 4.3 0 1.3 1 1.3 3 0 4.2l-6.4 6.5z" transform="translate(-118 -13)" fill-rule="nonzero" fill="#FFFFFF" stroke="none" stroke-width="1"></path></svg>